/* XPM */
static char * refresh_xpm[] = {
"13 15 2 1",
" 	c #8E8E8E8E8E8E",
".	c #000000000000",
"             ",
"             ",
"    .....    ",
"   .     .   ",
"  .       .  ",
" .         . ",
" .         . ",
" .         . ",
" .         . ",
" .      .  . ",
"  .     . .  ",
"   .    ..   ",
"        .... ",
"             ",
"             "};
