/* XPM */
static char * snapshot_xpm[] = {
"13 15 3 1",
" 	c #949495959494",
".	c #8E8E8E8E8E8E",
"X	c #000000000000",
"             ",
".............",
"....XXXXX....",
"....X...X....",
"....X...X....",
"XXXXXXXXXXXXX",
"X...........X",
"X....XXX....X",
"X...XXXXX...X",
"X...XXXXX...X",
"X...XXXXX...X",
"X....XXX....X",
"X...........X",
"XXXXXXXXXXXXX",
"............."};
